# xmcd
#
# Track frame offsets:
#	150
#	14200
#	31284
#	44703
#	61679
#	79679
#	98438
#	111063
#	132936
#	147636
#	166882
#
# Disc length: 2525 seconds
# Revision: 0
# Processed by: cddbd v1.5.2PL0 Copyright (c) Steve Scherf et al.
# Submitted via: dBpowerAMP V12.0
#
DISCID=9109db0b
DTITLE=Adam Hood - 21 To Enter
DYEAR=1900
DGENRE=
TTITLE0=Stay Out Of My Way
TTITLE1=Take Me With You
TTITLE2=Million Miles Away
TTITLE3=This House
TTITLE4=Coffee Song
TTITLE5=I Wanna Be With You
TTITLE6=Tuesday Night
TTITLE7=Nobody Comes Here Anymore
TTITLE8=Big Mistake
TTITLE9=Last  Man Standing
TTITLE10=Dead and Gone
EXTD=
EXTT0=
EXTT1=
EXTT2=
EXTT3=
EXTT4=
EXTT5=
EXTT6=
EXTT7=
EXTT8=
EXTT9=
EXTT10=
PLAYORDER=
